<?xml version="1.0" encoding="utf-8"?>
<!-- Generator: Adobe Illustrator 27.5.0, SVG Export Plug-In . SVG Version: 6.00 Build 0)  -->
<svg version="1.1" id="Layer_1" xmlns="http://www.w3.org/2000/svg" xmlns:xlink="http://www.w3.org/1999/xlink" x="0px" y="0px"
	 viewBox="0 0 700 700" style="enable-background:new 0 0 700 700;" xml:space="preserve">
<path d="M473.2,189.8h-44.8v-16.2c0-43.1-35.3-78.4-78.4-78.4c-43.1,0-78.4,35.3-78.4,78.4v16.2h-44.8c-12.3,0-22.4,10.1-22.4,22.4
	V397c0,37,30.2,67.2,67.2,67.2h156.8c37,0,67.2-30.2,67.2-67.2V212.2C495.6,199.9,485.5,189.8,473.2,189.8z M294,174.2
	c0-30.8,25.2-56,56-56s56,25.2,56,56v16.2H294V174.2z M473.2,397c0,24.6-20.2,44.8-44.8,44.8H271.6c-24.6,0-44.8-20.2-44.8-44.8
	V212.2h44.8v62.2c0,6.2,5,11.2,11.2,11.2c6.2,0,11.2-5,11.2-11.2v-62.2h112v62.2c0,6.2,5,11.2,11.2,11.2c6.2,0,11.2-5,11.2-11.2
	v-62.2h44.8L473.2,397z"/>
</svg>
